solid ASCII
  facet normal -1.000000e+00 -1.209434e-16 -1.718710e-31
    outer loop
      vertex   -9.218528e+01 -3.019556e+01 1.050427e+02
      vertex   -9.218528e+01 -5.001956e+02 1.050427e+02
      vertex   -9.218528e+01 -3.019556e+01 1.075427e+02
    endloop
  endfacet
  facet normal -1.000000e+00 -1.209434e-16 0.000000e+00
    outer loop
      vertex   -9.218528e+01 -3.019556e+01 1.075427e+02
      vertex   -9.218528e+01 -5.001956e+02 1.050427e+02
      vertex   -9.218528e+01 -5.001956e+02 1.075427e+02
    endloop
  endfacet
  facet normal 0.000000e+00 -1.000000e+00 0.000000e+00
    outer loop
      vertex   -9.218528e+01 -5.001956e+02 1.050427e+02
      vertex   3.738147e+02 -5.001956e+02 1.050427e+02
      vertex   -9.218528e+01 -5.001956e+02 1.075427e+02
    endloop
  endfacet
  facet normal 0.000000e+00 -1.000000e+00 0.000000e+00
    outer loop
      vertex   -9.218528e+01 -5.001956e+02 1.075427e+02
      vertex   3.738147e+02 -5.001956e+02 1.050427e+02
      vertex   3.738147e+02 -5.001956e+02 1.075427e+02
    endloop
  endfacet
  facet normal 1.733463e-31 1.000000e+00 1.421085e-15
    outer loop
      vertex   3.738147e+02 -3.019556e+01 1.050427e+02
      vertex   -9.218528e+01 -3.019556e+01 1.050427e+02
      vertex   3.738147e+02 -3.019556e+01 1.075427e+02
    endloop
  endfacet
  facet normal 1.733463e-31 1.000000e+00 1.421085e-15
    outer loop
      vertex   3.738147e+02 -3.019556e+01 1.075427e+02
      vertex   -9.218528e+01 -3.019556e+01 1.050427e+02
      vertex   -9.218528e+01 -3.019556e+01 1.075427e+02
    endloop
  endfacet
  facet normal 1.000000e+00 0.000000e+00 0.000000e+00
    outer loop
      vertex   3.738147e+02 -5.001956e+02 1.050427e+02
      vertex   3.738147e+02 -3.019556e+01 1.050427e+02
      vertex   3.738147e+02 -5.001956e+02 1.075427e+02
    endloop
  endfacet
  facet normal 1.000000e+00 -0.000000e+00 0.000000e+00
    outer loop
      vertex   3.738147e+02 -5.001956e+02 1.075427e+02
      vertex   3.738147e+02 -3.019556e+01 1.050427e+02
      vertex   3.738147e+02 -3.019556e+01 1.075427e+02
    endloop
  endfacet
  facet normal 1.219816e-16 -9.373117e-16 1.000000e+00
    outer loop
      vertex   3.738147e+02 -3.019556e+01 1.075427e+02
      vertex   -9.218528e+01 -3.019556e+01 1.075427e+02
      vertex   3.738147e+02 -5.001956e+02 1.075427e+02
    endloop
  endfacet
  facet normal 1.219816e-16 -9.373117e-16 1.000000e+00
    outer loop
      vertex   3.738147e+02 -5.001956e+02 1.075427e+02
      vertex   -9.218528e+01 -3.019556e+01 1.075427e+02
      vertex   -9.218528e+01 -5.001956e+02 1.075427e+02
    endloop
  endfacet
  facet normal -1.219816e-16 9.373117e-16 -1.000000e+00
    outer loop
      vertex   3.738147e+02 -5.001956e+02 1.050427e+02
      vertex   -9.218528e+01 -5.001956e+02 1.050427e+02
      vertex   3.738147e+02 -3.019556e+01 1.050427e+02
    endloop
  endfacet
  facet normal -1.219816e-16 9.373117e-16 -1.000000e+00
    outer loop
      vertex   3.738147e+02 -3.019556e+01 1.050427e+02
      vertex   -9.218528e+01 -5.001956e+02 1.050427e+02
      vertex   -9.218528e+01 -3.019556e+01 1.050427e+02
    endloop
  endfacet
endsolid
