solid ASCII
  facet normal -1.705303e-14 -9.070758e-16 1.000000e+00
    outer loop
      vertex   3.738147e+02 -3.019556e+01 1.010427e+02
      vertex   3.738147e+02 -5.001956e+02 1.010427e+02
      vertex   3.763147e+02 -3.019556e+01 1.010427e+02
    endloop
  endfacet
  facet normal -1.705303e-14 -9.070758e-16 1.000000e+00
    outer loop
      vertex   3.763147e+02 -3.019556e+01 1.010427e+02
      vertex   3.738147e+02 -5.001956e+02 1.010427e+02
      vertex   3.763147e+02 -5.001956e+02 1.010427e+02
    endloop
  endfacet
  facet normal 1.278977e-14 1.000000e+00 -1.436787e-30
    outer loop
      vertex   3.738147e+02 -3.019556e+01 -4.049573e+02
      vertex   3.738147e+02 -3.019556e+01 1.010427e+02
      vertex   3.763147e+02 -3.019556e+01 -4.049573e+02
    endloop
  endfacet
  facet normal 2.554288e-30 1.000000e+00 -6.319056e-17
    outer loop
      vertex   3.763147e+02 -3.019556e+01 -4.049573e+02
      vertex   3.738147e+02 -3.019556e+01 1.010427e+02
      vertex   3.763147e+02 -3.019556e+01 1.010427e+02
    endloop
  endfacet
  facet normal 0.000000e+00 0.000000e+00 -1.000000e+00
    outer loop
      vertex   3.738147e+02 -5.001956e+02 -4.049573e+02
      vertex   3.738147e+02 -3.019556e+01 -4.049573e+02
      vertex   3.763147e+02 -5.001956e+02 -4.049573e+02
    endloop
  endfacet
  facet normal 0.000000e+00 0.000000e+00 -1.000000e+00
    outer loop
      vertex   3.763147e+02 -5.001956e+02 -4.049573e+02
      vertex   3.738147e+02 -3.019556e+01 -4.049573e+02
      vertex   3.763147e+02 -3.019556e+01 -4.049573e+02
    endloop
  endfacet
  facet normal 0.000000e+00 -1.000000e+00 -0.000000e+00
    outer loop
      vertex   3.738147e+02 -5.001956e+02 1.010427e+02
      vertex   3.738147e+02 -5.001956e+02 -4.049573e+02
      vertex   3.763147e+02 -5.001956e+02 1.010427e+02
    endloop
  endfacet
  facet normal 0.000000e+00 -1.000000e+00 0.000000e+00
    outer loop
      vertex   3.763147e+02 -5.001956e+02 1.010427e+02
      vertex   3.738147e+02 -5.001956e+02 -4.049573e+02
      vertex   3.763147e+02 -5.001956e+02 -4.049573e+02
    endloop
  endfacet
  facet normal 1.000000e+00 1.209434e-16 -1.123388e-16
    outer loop
      vertex   3.763147e+02 -5.001956e+02 1.010427e+02
      vertex   3.763147e+02 -5.001956e+02 -4.049573e+02
      vertex   3.763147e+02 -3.019556e+01 1.010427e+02
    endloop
  endfacet
  facet normal 1.000000e+00 1.209434e-16 -1.123388e-16
    outer loop
      vertex   3.763147e+02 -3.019556e+01 1.010427e+02
      vertex   3.763147e+02 -5.001956e+02 -4.049573e+02
      vertex   3.763147e+02 -3.019556e+01 -4.049573e+02
    endloop
  endfacet
  facet normal -1.000000e+00 -1.209434e-16 1.123388e-16
    outer loop
      vertex   3.738147e+02 -5.001956e+02 1.010427e+02
      vertex   3.738147e+02 -3.019556e+01 1.010427e+02
      vertex   3.738147e+02 -5.001956e+02 -4.049573e+02
    endloop
  endfacet
  facet normal -1.000000e+00 -1.209434e-16 1.123388e-16
    outer loop
      vertex   3.738147e+02 -5.001956e+02 -4.049573e+02
      vertex   3.738147e+02 -3.019556e+01 1.010427e+02
      vertex   3.738147e+02 -3.019556e+01 -4.049573e+02
    endloop
  endfacet
endsolid
