<svg xmlns="http://www.w3.org/2000/svg" width="1100" height="390" viewBox="0 0 1100 390" role="img" aria-labelledby="title desc">
  <title id="title">Слои V1-Experiment</title><desc id="desc">Примитивы и история операций работают со sparse voxel grid и несколькими выходами.</desc>
  <defs><marker id="a" markerWidth="10" markerHeight="10" refX="9" refY="3" orient="auto"><path d="M0 0v6l9-3z" fill="#fb7185"/></marker></defs>
  <rect width="1100" height="390" rx="24" fill="#210b13"/>
  <text x="55" y="58" fill="#fff1f2" font-family="Segoe UI,Arial" font-size="30" font-weight="700">V1-Experiment: новая воксельная надстройка над старым UI</text>
  <g fill="#451827" stroke="#fb7185" stroke-width="2"><rect x="55" y="120" width="210" height="135" rx="14"/><rect x="325" y="120" width="250" height="135" rx="14"/><rect x="635" y="90" width="200" height="95" rx="14"/><rect x="635" y="220" width="200" height="95" rx="14"/><rect x="895" y="120" width="150" height="135" rx="14"/></g>
  <g fill="#ffe4e6" font-family="Segoe UI,Arial" text-anchor="middle"><text x="160" y="158" font-size="20" font-weight="700">Операции</text><text x="160" y="188" font-size="14">box · sphere · cylinder</text><text x="160" y="211" font-size="14">extrude · boolean</text><text x="450" y="158" font-size="20" font-weight="700">SparseVoxelGrid</text><text x="450" y="188" font-size="14">координата → material</text><text x="450" y="211" font-size="14">+ scalar field</text><text x="735" y="128" font-size="20" font-weight="700">SurfaceFaces</text><text x="735" y="157" font-size="14">только внешние грани</text><text x="735" y="258" font-size="20" font-weight="700">Manufacturing</text><text x="735" y="286" font-size="14">offset · layers · G-code</text><text x="970" y="169" font-size="20" font-weight="700">WinForms</text><text x="970" y="201" font-size="14">SharpGL demo</text></g>
  <g stroke="#fb7185" stroke-width="3" fill="none" marker-end="url(#a)"><line x1="265" y1="187" x2="315" y2="187"/><path d="M575 165 C600 165 603 138 625 138"/><path d="M575 210 C600 210 603 268 625 268"/><line x1="835" y1="138" x2="885" y2="170"/></g>
  <text x="55" y="354" fill="#fda4af" font-family="Segoe UI,Arial" font-size="16">OperationHistory хранится в памяти; формата проекта и полноценного слайсера пока нет.</text>
</svg>
